<mxfile host="app.diagrams.net" modified="2022-09-08T14:03:28.449Z" agent="5.0 (Windows NT 10.0; Win64; x64) AppleWebKit/537.36 (KHTML, like Gecko) Chrome/104.0.0.0 Safari/537.36" etag="ciXOFh8NbctJP_zarl7L" version="20.2.8" type="github">
  <diagram id="5Q9INnKn81z7STsdrhi8" name="第 1 页">
    <mxGraphModel dx="1038" dy="482" grid="1" gridSize="10" guides="1" tooltips="1" connect="1" arrows="1" fold="1" page="1" pageScale="1" pageWidth="2000" pageHeight="1169" math="0" shadow="0">
      <root>
        <mxCell id="0" />
        <mxCell id="1" parent="0" />
        <mxCell id="DpC04mAJgFHcgKS7zgnG-29" style="edgeStyle=orthogonalEdgeStyle;rounded=0;orthogonalLoop=1;jettySize=auto;html=1;exitX=1;exitY=0.5;exitDx=0;exitDy=0;entryX=0;entryY=0.5;entryDx=0;entryDy=0;startArrow=classic;startFill=1;fontFamily=Verdana;" parent="1" source="-gOKCJ8Xob2ZJ9NSNxOn-8" target="-gOKCJ8Xob2ZJ9NSNxOn-28" edge="1">
          <mxGeometry relative="1" as="geometry" />
        </mxCell>
        <mxCell id="-gOKCJ8Xob2ZJ9NSNxOn-8" value="F3" style="rounded=1;whiteSpace=wrap;html=1;shadow=0;sketch=0;glass=0;fillColor=#fff2cc;strokeColor=#d6b656;fontFamily=Verdana;" parent="1" vertex="1">
          <mxGeometry x="560" y="170" width="80" height="30" as="geometry" />
        </mxCell>
        <mxCell id="DpC04mAJgFHcgKS7zgnG-30" style="edgeStyle=orthogonalEdgeStyle;rounded=0;orthogonalLoop=1;jettySize=auto;html=1;exitX=1;exitY=0.5;exitDx=0;exitDy=0;entryX=0;entryY=0.5;entryDx=0;entryDy=0;startArrow=classic;startFill=1;fontFamily=Verdana;" parent="1" source="-gOKCJ8Xob2ZJ9NSNxOn-28" target="DpC04mAJgFHcgKS7zgnG-4" edge="1">
          <mxGeometry relative="1" as="geometry" />
        </mxCell>
        <mxCell id="-gOKCJ8Xob2ZJ9NSNxOn-28" value="F4" style="rounded=1;whiteSpace=wrap;html=1;shadow=0;sketch=0;glass=0;fillColor=#f8cecc;strokeColor=#b85450;fontFamily=Verdana;" parent="1" vertex="1">
          <mxGeometry x="680" y="170" width="80" height="30" as="geometry" />
        </mxCell>
        <mxCell id="DpC04mAJgFHcgKS7zgnG-16" style="edgeStyle=orthogonalEdgeStyle;rounded=0;orthogonalLoop=1;jettySize=auto;html=1;exitX=0.5;exitY=1;exitDx=0;exitDy=0;fontFamily=Verdana;" parent="1" source="USoCeS0oPAwzw0LSOEsq-10" target="-gOKCJ8Xob2ZJ9NSNxOn-8" edge="1">
          <mxGeometry relative="1" as="geometry" />
        </mxCell>
        <mxCell id="DpC04mAJgFHcgKS7zgnG-17" style="edgeStyle=orthogonalEdgeStyle;rounded=0;orthogonalLoop=1;jettySize=auto;html=1;exitX=0.5;exitY=1;exitDx=0;exitDy=0;fontFamily=Verdana;" parent="1" source="USoCeS0oPAwzw0LSOEsq-10" target="DpC04mAJgFHcgKS7zgnG-2" edge="1">
          <mxGeometry relative="1" as="geometry" />
        </mxCell>
        <mxCell id="DpC04mAJgFHcgKS7zgnG-18" style="edgeStyle=orthogonalEdgeStyle;rounded=0;orthogonalLoop=1;jettySize=auto;html=1;exitX=0.5;exitY=1;exitDx=0;exitDy=0;fontFamily=Verdana;" parent="1" source="USoCeS0oPAwzw0LSOEsq-10" target="DpC04mAJgFHcgKS7zgnG-1" edge="1">
          <mxGeometry relative="1" as="geometry" />
        </mxCell>
        <mxCell id="DpC04mAJgFHcgKS7zgnG-19" style="edgeStyle=orthogonalEdgeStyle;rounded=0;orthogonalLoop=1;jettySize=auto;html=1;exitX=0.5;exitY=1;exitDx=0;exitDy=0;fontFamily=Verdana;" parent="1" source="USoCeS0oPAwzw0LSOEsq-10" target="-gOKCJ8Xob2ZJ9NSNxOn-28" edge="1">
          <mxGeometry relative="1" as="geometry" />
        </mxCell>
        <mxCell id="DpC04mAJgFHcgKS7zgnG-20" style="edgeStyle=orthogonalEdgeStyle;rounded=0;orthogonalLoop=1;jettySize=auto;html=1;exitX=0.5;exitY=1;exitDx=0;exitDy=0;entryX=0.5;entryY=0;entryDx=0;entryDy=0;fontFamily=Verdana;" parent="1" source="USoCeS0oPAwzw0LSOEsq-10" target="DpC04mAJgFHcgKS7zgnG-4" edge="1">
          <mxGeometry relative="1" as="geometry" />
        </mxCell>
        <mxCell id="USoCeS0oPAwzw0LSOEsq-10" value="Input" style="shape=hexagon;perimeter=hexagonPerimeter2;whiteSpace=wrap;html=1;fixedSize=1;fillColor=#dae8fc;strokeColor=#6c8ebf;fontFamily=Verdana;" parent="1" vertex="1">
          <mxGeometry x="560" y="80" width="80" height="40" as="geometry" />
        </mxCell>
        <mxCell id="DpC04mAJgFHcgKS7zgnG-27" style="edgeStyle=orthogonalEdgeStyle;rounded=0;orthogonalLoop=1;jettySize=auto;html=1;exitX=1;exitY=0.5;exitDx=0;exitDy=0;startArrow=classic;startFill=1;fontFamily=Verdana;" parent="1" source="DpC04mAJgFHcgKS7zgnG-1" target="DpC04mAJgFHcgKS7zgnG-2" edge="1">
          <mxGeometry relative="1" as="geometry" />
        </mxCell>
        <mxCell id="DpC04mAJgFHcgKS7zgnG-1" value="F1" style="rounded=1;whiteSpace=wrap;html=1;shadow=0;sketch=0;glass=0;fillColor=#fff2cc;strokeColor=#d6b656;fontFamily=Verdana;" parent="1" vertex="1">
          <mxGeometry x="320" y="170" width="80" height="30" as="geometry" />
        </mxCell>
        <mxCell id="DpC04mAJgFHcgKS7zgnG-28" style="edgeStyle=orthogonalEdgeStyle;rounded=0;orthogonalLoop=1;jettySize=auto;html=1;exitX=1;exitY=0.5;exitDx=0;exitDy=0;entryX=0;entryY=0.5;entryDx=0;entryDy=0;startArrow=classic;startFill=1;fontFamily=Verdana;" parent="1" source="DpC04mAJgFHcgKS7zgnG-2" target="-gOKCJ8Xob2ZJ9NSNxOn-8" edge="1">
          <mxGeometry relative="1" as="geometry" />
        </mxCell>
        <mxCell id="DpC04mAJgFHcgKS7zgnG-2" value="F2" style="rounded=1;whiteSpace=wrap;html=1;shadow=0;sketch=0;glass=0;fillColor=#fff2cc;strokeColor=#d6b656;fontFamily=Verdana;" parent="1" vertex="1">
          <mxGeometry x="440" y="170" width="80" height="30" as="geometry" />
        </mxCell>
        <mxCell id="DpC04mAJgFHcgKS7zgnG-4" value="F5" style="rounded=1;whiteSpace=wrap;html=1;shadow=0;sketch=0;glass=0;fillColor=#f8cecc;strokeColor=#b85450;fontFamily=Verdana;" parent="1" vertex="1">
          <mxGeometry x="800" y="170" width="80" height="30" as="geometry" />
        </mxCell>
        <mxCell id="DpC04mAJgFHcgKS7zgnG-32" style="edgeStyle=orthogonalEdgeStyle;rounded=0;orthogonalLoop=1;jettySize=auto;html=1;exitX=1;exitY=0.5;exitDx=0;exitDy=0;entryX=0;entryY=0.5;entryDx=0;entryDy=0;startArrow=classic;startFill=1;dashed=1;fontFamily=Verdana;" parent="1" source="DpC04mAJgFHcgKS7zgnG-6" target="DpC04mAJgFHcgKS7zgnG-21" edge="1">
          <mxGeometry relative="1" as="geometry" />
        </mxCell>
        <mxCell id="DpC04mAJgFHcgKS7zgnG-6" value="FR1(F4)" style="rounded=1;whiteSpace=wrap;html=1;shadow=0;sketch=0;glass=0;fillColor=#f5f5f5;strokeColor=#666666;fontColor=#333333;fontFamily=Verdana;" parent="1" vertex="1">
          <mxGeometry x="320" y="200" width="80" height="10" as="geometry" />
        </mxCell>
        <mxCell id="DpC04mAJgFHcgKS7zgnG-33" style="edgeStyle=orthogonalEdgeStyle;rounded=0;orthogonalLoop=1;jettySize=auto;html=1;exitX=1;exitY=0.5;exitDx=0;exitDy=0;entryX=0;entryY=0.5;entryDx=0;entryDy=0;startArrow=classic;startFill=1;dashed=1;fontFamily=Verdana;" parent="1" source="DpC04mAJgFHcgKS7zgnG-9" target="DpC04mAJgFHcgKS7zgnG-22" edge="1">
          <mxGeometry relative="1" as="geometry" />
        </mxCell>
        <mxCell id="DpC04mAJgFHcgKS7zgnG-9" value="FR1(F5)" style="rounded=1;whiteSpace=wrap;html=1;shadow=0;sketch=0;glass=0;fillColor=#EBEBEB;strokeColor=#666666;fontColor=#333333;fontFamily=Verdana;" parent="1" vertex="1">
          <mxGeometry x="320" y="210" width="80" height="10" as="geometry" />
        </mxCell>
        <mxCell id="DpC04mAJgFHcgKS7zgnG-31" style="edgeStyle=orthogonalEdgeStyle;rounded=0;orthogonalLoop=1;jettySize=auto;html=1;exitX=1;exitY=0.5;exitDx=0;exitDy=0;startArrow=classic;startFill=1;dashed=1;fontFamily=Verdana;" parent="1" source="DpC04mAJgFHcgKS7zgnG-21" target="DpC04mAJgFHcgKS7zgnG-25" edge="1">
          <mxGeometry relative="1" as="geometry" />
        </mxCell>
        <mxCell id="DpC04mAJgFHcgKS7zgnG-21" value="FR2(F4)" style="rounded=1;whiteSpace=wrap;html=1;shadow=0;sketch=0;glass=0;fillColor=#f5f5f5;strokeColor=#666666;fontColor=#333333;fontFamily=Verdana;" parent="1" vertex="1">
          <mxGeometry x="440" y="200" width="80" height="10" as="geometry" />
        </mxCell>
        <mxCell id="DpC04mAJgFHcgKS7zgnG-34" style="edgeStyle=orthogonalEdgeStyle;rounded=0;orthogonalLoop=1;jettySize=auto;html=1;exitX=1;exitY=0.5;exitDx=0;exitDy=0;entryX=0;entryY=0.5;entryDx=0;entryDy=0;startArrow=classic;startFill=1;dashed=1;fontFamily=Verdana;" parent="1" source="DpC04mAJgFHcgKS7zgnG-22" target="DpC04mAJgFHcgKS7zgnG-26" edge="1">
          <mxGeometry relative="1" as="geometry" />
        </mxCell>
        <mxCell id="DpC04mAJgFHcgKS7zgnG-22" value="FR2(F5)" style="rounded=1;whiteSpace=wrap;html=1;shadow=0;sketch=0;glass=0;fillColor=#EBEBEB;strokeColor=#666666;fontColor=#333333;fontFamily=Verdana;" parent="1" vertex="1">
          <mxGeometry x="440" y="210" width="80" height="10" as="geometry" />
        </mxCell>
        <mxCell id="DpC04mAJgFHcgKS7zgnG-25" value="FR3(F4)" style="rounded=1;whiteSpace=wrap;html=1;shadow=0;sketch=0;glass=0;fillColor=#f5f5f5;strokeColor=#666666;fontColor=#333333;fontFamily=Verdana;" parent="1" vertex="1">
          <mxGeometry x="560" y="200" width="80" height="10" as="geometry" />
        </mxCell>
        <mxCell id="DpC04mAJgFHcgKS7zgnG-26" value="FR3(F5)" style="rounded=1;whiteSpace=wrap;html=1;shadow=0;sketch=0;glass=0;fillColor=#EBEBEB;strokeColor=#666666;fontColor=#333333;fontFamily=Verdana;" parent="1" vertex="1">
          <mxGeometry x="560" y="210" width="80" height="10" as="geometry" />
        </mxCell>
      </root>
    </mxGraphModel>
  </diagram>
</mxfile>
